<svg width="500" height="500" viewBox="0 0 500 500" fill="none" xmlns="http://www.w3.org/2000/svg">
<rect width="500" height="500" fill="white"/>
<path d="M330.852 170.928C330.852 171.831 330.569 172.68 330.003 173.475C329.449 174.222 328.811 174.601 328.089 174.613C322.429 175.179 317.817 176.985 314.253 180.032C310.64 183.084 306.973 189.009 303.18 197.643L244.929 328.993C244.531 330.221 243.46 330.823 241.714 330.799C241.065 330.815 240.424 330.655 239.858 330.337C239.293 330.02 238.823 329.555 238.499 328.993L205.824 260.699L168.235 328.993C167.441 330.239 166.429 330.799 165.02 330.799C163.334 330.799 162.227 330.197 161.697 328.993L104.511 197.697C100.947 189.557 97.1836 183.873 93.2219 180.646C87.2793 175.805 83.7391 175.39 76.6766 174.667C76.0625 174.655 75.4965 174.336 74.9787 173.71C74.433 173.109 74.1473 172.317 74.184 171.506C74.184 169.363 74.7861 168.291 75.9902 168.291C81.0718 168.291 86.4183 168.52 92.0297 168.977C97.2077 169.435 102.079 169.664 106.642 169.664C111.266 169.664 116.811 169.429 123.133 168.977C129.744 168.52 135.615 168.291 140.744 168.291C141.973 168.291 142.575 169.363 142.551 171.506C142.514 174.721 142.153 174.667 141.413 174.667C136.319 175.064 132.291 176.365 129.329 178.569C124.885 181.874 124.922 183.644 124.922 187.257C124.922 189.075 125.524 191.351 126.728 194.084L173.979 300.87L200.838 250.186L175.84 197.751C171.336 188.383 167.651 182.344 164.786 179.634C160.487 175.57 157.506 175.281 151.636 174.667C151.076 174.667 150.624 174.324 150.119 173.71C149.613 173.096 149.378 172.355 149.378 171.506C149.366 169.363 149.896 168.291 150.968 168.291C156.049 168.291 160.733 168.52 165.02 168.977C169.114 169.435 173.498 169.664 178.17 169.664C182.722 169.664 187.556 169.435 192.674 168.977C197.936 168.52 203.108 168.291 208.19 168.291C209.418 168.291 210.02 169.363 209.996 171.506C209.96 174.721 209.653 174.667 208.858 174.667C198.647 175.365 193.547 178.262 193.559 183.355C193.559 185.619 194.745 189.159 197.117 193.976L213.663 227.554L230.136 196.848C232.424 192.489 233.574 188.84 233.586 185.902C233.598 178.894 228.498 175.167 218.287 174.721C217.383 174.721 216.932 173.668 216.932 171.56C216.932 170.79 217.155 170.073 217.6 169.411C218.269 168.417 218.503 168.399 218.955 168.399C222.604 168.399 227.101 168.628 232.448 169.086C237.523 169.537 241.768 169.772 245.037 169.772C247.397 169.748 250.859 169.561 255.423 169.212C261.203 168.694 266.038 168.429 269.927 168.417C270.83 168.417 271.282 169.321 271.282 171.127C271.27 173.559 270.445 174.781 268.807 174.794C262.871 175.408 258.09 177.045 254.466 179.707C249.029 183.698 246.338 188.395 240.919 197.877L218.847 238.283L248.541 298.793L292.397 196.794C293.902 193.061 294.655 189.635 294.655 186.516C294.667 179.086 289.567 175.119 279.356 174.613C278.453 174.613 278.001 173.559 278.001 171.452C278.001 169.309 278.682 168.237 280.042 168.237C283.751 168.237 288.17 168.466 293.3 168.923C298.033 169.381 301.982 169.61 305.149 169.61C308.521 169.61 312.398 169.381 316.781 168.923C321.357 168.466 325.476 168.237 329.136 168.237C330.268 168.237 330.834 169.14 330.834 170.946L330.852 170.928Z" fill="black"/>
<path d="M383.75 272.25H376.25C376.25 262.083 378 252.667 381.5 244C383.167 239.833 387.583 232.167 394.75 221C401.75 209.833 405.25 199.167 405.25 189C405.25 187.667 405.167 186.333 405 185C404 173.667 396.917 168 383.75 168C379.417 168 375.917 168.917 373.25 170.75C370.25 172.917 368.333 177.917 367.5 185.75C367.167 188.417 366.833 190.417 366.5 191.75C365.167 197.75 361.417 200.75 355.25 200.75C347.417 200.583 343.333 196.167 343 187.5C343.167 182.167 345.5 177.333 350 173C358.167 165.333 370.167 161.5 386 161.5C392.667 161.5 398.833 162.25 404.5 163.75C421 168.417 429.25 178.5 429.25 194C429.25 198.333 428.333 202.5 426.5 206.5C424.167 211.5 418.417 218.083 409.25 226.25C405.417 229.583 402.583 232.167 400.75 234C389.417 245.333 383.75 258.083 383.75 272.25ZM392.75 302.5C392.75 304.333 392.333 306.167 391.5 308C389.167 312.833 385.333 315.25 380 315.25C378.167 315.25 376.333 314.833 374.5 314C369.667 311.667 367.25 307.833 367.25 302.5C367.25 300.667 367.667 298.833 368.5 297C370.667 292 374.5 289.5 380 289.5C381.833 289.5 383.583 289.917 385.25 290.75C390.25 293.083 392.75 297 392.75 302.5Z" fill="black"/>
</svg>
